<svg width="300" height="142" version="1.1" id="Layer_1" xmlns="http://www.w3.org/2000/svg" xmlns:xlink="http://www.w3.org/1999/xlink" x="0px" y="0px" viewBox="22 13 57 26.9" style="enable-background:new 22 13 57 26.9;" xml:space="preserve">
<style type="text/css">
	.st0{fill-rule:evenodd;clip-rule:evenodd;fill:#ffffff;}
</style>
<path transform="scale(0.8) translate(12, 10)" class="st0" d="M32.6,33.4c1,0,1.8,0.8,1.8,1.8c0,1-0.8,1.8-1.8,1.8c-1,0-1.8-0.8-1.8-1.8C30.9,34.2,31.7,33.4,32.6,33.4
	 M32.6,34.6c0.3,0,0.6,0.3,0.6,0.6s-0.3,0.6-0.6,0.6c-0.3,0-0.6-0.3-0.6-0.6S32.3,34.6,32.6,34.6z M32.6,32.1c1.7,0,3,1.4,3,3
	s-1.4,3-3,3c-1.7,0-3-1.4-3-3S30.9,32.1,32.6,32.1z M70,33.4c1,0,1.8,0.8,1.8,1.8c0,1-0.8,1.8-1.8,1.8c-1,0-1.8-0.8-1.8-1.8
	C68.3,34.2,69,33.4,70,33.4z M70,34.6c0.3,0,0.6,0.3,0.6,0.6s-0.3,0.6-0.6,0.6c-0.3,0-0.6-0.3-0.6-0.6S69.7,34.6,70,34.6z M70,32.1
	c1.7,0,3,1.4,3,3s-1.4,3-3,3c-1.7,0-3-1.4-3-3S68.3,32.1,70,32.1z M22.9,31.8c0-2.7,0.1-5.3,0.3-8c0.2-2.8,0.7-5.6,1.2-8.3
	c0.1-0.5,0.2-1.1,0.7-1.5c0.4-0.4,0.9-0.4,1.4-0.4l29.8,0.5c2.5,0,3.8,0.6,5.8,2.1c1.6,1.2,3,2.7,4.3,4.1c1.1,1.2,2.1,2.4,3.1,3.6
	c1.1,0.4,2.3,0.8,3.4,1.3c0.8,0.4,1.5,0.8,2.2,1.2c2,1.2,2.3,2.6,2.3,4.7l0.4,0.6C78,31.8,78,31.9,78,32v2.8c0,0.1,0,0.2-0.1,0.3
	c-1.3,1.7-2.1,1.7-4.1,1.9c-0.7,1.4-2.1,2.4-3.8,2.4c-1.7,0-3.1-1-3.8-2.4l-29.5-0.7c-0.5,1.8-2.1,3.1-4.1,3.1c-2,0-3.7-1.4-4.1-3.2
	c0,0-0.1,0-0.1,0L22.6,36c-0.3,0-0.6-0.3-0.6-0.6v-3c0-0.3,0.3-0.6,0.6-0.6H22.9z M23.9,32.8c-0.1,0.1-0.2,0.1-0.3,0.1c0,0,0,0,0,0
	h-0.3v1.9l5.2,0.2c0-0.8,0.3-1.5,0.6-2.1L23.9,32.8z M76.3,30.2c-0.1-1.1-0.5-1.9-1.7-2.7c-0.3-0.2-0.7-0.4-1-0.6l0.1,1
	c0.6,0.6,1.2,1.2,1.8,1.7C75.7,29.8,75.9,30,76.3,30.2z M24.3,26.3c-0.1,1.8-0.1,3.6-0.1,5.4l0.8,0v-3.9
	C24.9,27.1,24.6,26.7,24.3,26.3z M67.8,24.3v1.9l-1.9,0.9l-6.5-1.9c-1.4-0.4-1.8-0.6-2.1-2.1L57,20.4c-0.3-1.3-0.3-1.8,1.2-1.8
	l2.3-0.1c1.6,0,2.9,1.2,4,2.3L67.8,24.3z M61.5,24.6l-0.7-4.8c0,0,0,0,0,0c-0.1,0-0.2,0-0.4,0l-2.3,0.1c0,0-0.1,0-0.1,0
	c0.2,1,0.2,2.1,0.3,3.1c0,0.2,0.1,0.7,0.3,0.8c0.1,0.1,0.8,0.3,1,0.4L61.5,24.6z M62.1,20.4l0.6,4.6l3,0.8l0.9-0.3v-0.7l-3.1-3.1
	C63.2,21.3,62.7,20.8,62.1,20.4z M26.5,24.1L41,24.4c0.3,0,0.6,0.3,0.6,0.6c0,0.3-0.3,0.6-0.6,0.6l-14.5-0.2c-0.3,0-0.6-0.3-0.6-0.6
	C25.9,24.4,26.2,24.1,26.5,24.1z M41.1,18.7L41,23.2c0,0.3-0.3,0.6-0.6,0.6c-0.3,0-0.6-0.3-0.6-0.6l0.1-4.5c0-0.3,0.3-0.6,0.6-0.6
	C40.9,18.1,41.1,18.3,41.1,18.7z M39.7,35.2l0-2.1L36.3,33c0.4,0.6,0.6,1.3,0.6,2.1L39.7,35.2z M40.9,33.1l0,2.1l15.4,0.4
	c0-0.1,0-0.1,0-0.2l0-2L40.9,33.1z M42.5,17.8L53.6,18c0.3,0,0.6,0.3,0.6,0.6c0,0.3-0.3,0.6-0.6,0.6L42.5,19c-0.3,0-0.6-0.3-0.6-0.6
	C41.9,18.1,42.2,17.8,42.5,17.8z M53.2,28l-1.1,0c-0.3,0-0.6-0.3-0.6-0.6c0-0.3,0.3-0.6,0.6-0.6l1.1,0c0.3,0,0.6,0.3,0.6,0.6
	C53.8,27.7,53.5,28,53.2,28z M58.8,28l-1.1,0c-0.3,0-0.6-0.3-0.6-0.6c0-0.3,0.3-0.6,0.6-0.6l1.1,0c0.3,0,0.6,0.3,0.6,0.6
	C59.4,27.7,59.1,28,58.8,28z M73.4,32.7c0.5,0.7,0.8,1.6,0.8,2.5c0,0.2,0,0.4,0,0.6c0.2,0,0.5,0,0.7-0.1c0.3,0,0.6-0.1,0.8-0.2
	c0.5-0.2,0.8-0.6,1.1-1v-2.4l-0.4-0.6c0,0,0-0.1-0.1-0.1c-0.3-0.2-0.6-0.3-0.9-0.5L73.4,32.7z M32.6,30.9c1,0,1.9,0.3,2.6,0.9
	l4.4,0.1l0-5.2c0-0.3,0.3-0.6,0.6-0.6c0.3,0,0.6,0.3,0.6,0.6l0,5.2l15.4,0.3l0-2.3l-1-0.9c-0.1-0.1-0.2-0.3-0.2-0.4V18.5
	c0-0.3,0.3-0.6,0.6-0.6c0.3,0,0.6,0.3,0.6,0.6v9.8l1,0.9c0.1,0.1,0.2,0.3,0.2,0.4l0,2.6l4.6,0.1c0.3,0,0.6,0.3,0.6,0.6
	c0,0.3-0.3,0.6-0.6,0.6l-4.6-0.1l0,2c0,0.1,0,0.2,0,0.2l8.5,0.2c0-0.2-0.1-0.4-0.1-0.7c0-0.9,0.3-1.8,0.8-2.5v-4.1
	c0-0.3,0.3-0.6,0.6-0.6c0.3,0,0.6,0.3,0.6,0.6v3c0.6-0.4,1.4-0.6,2.2-0.6c1,0,1.9,0.3,2.6,0.9l1.8-1.5c-0.7-0.6-1.3-1.2-1.9-1.8
	c-0.1-0.1-0.2-0.2-0.2-0.4l-0.1-1.9c-1.1-0.5-2.2-0.9-3.3-1.3c-0.1,0-0.2-0.1-0.3-0.2c-1-1.2-2.1-2.5-3.2-3.7
	c-1.3-1.4-2.7-2.8-4.2-4c-1.8-1.4-2.8-1.8-5.1-1.8l-29.8-0.5c-0.2,0-0.5,0-0.6,0.1c-0.2,0.1-0.3,0.6-0.3,0.8c-0.6,2.7-1,5.4-1.2,8.2
	c0,0.3-0.1,0.6-0.1,0.9c1,0.9,1.7,1.5,1.7,3v3.9l4.1,0.1C30.8,31.2,31.7,30.9,32.6,30.9z"></path>
</svg>